# xmcd CD database file
#
# Track frame offsets:
#	150
#	20687
#	37071
#	51026
#	67778
#	85580
#	104684
#	125144
#	139471
#	156070
#	176540
#	198572
#	210654
#	225701
#	253960
#
# Disc length: 3602 seconds
#
# Revision: 2
# Processed by: cddbd v1.5.1PL0 Copyright (c) Steve Scherf et al.
# Submitted via: CDex 1.51
#
DISCID=dc0e100f
DTITLE=TULIP - 2000 BEST ??????
DYEAR=1900
DGENRE=Pop
TTITLE0=??????
TTITLE1=???????????
TTITLE2=???
TTITLE3=??????
TTITLE4=???????
TTITLE5=??????
TTITLE6=?????????
TTITLE7=???????
TTITLE8=???
TTITLE9=?????
TTITLE10=?????
TTITLE11=????
TTITLE12=????
TTITLE13=?????
TTITLE14=I dream
EXTD=
EXTT0=
EXTT1=
EXTT2=
EXTT3=
EXTT4=
EXTT5=
EXTT6=
EXTT7=
EXTT8=
EXTT9=
EXTT10=
EXTT11=
EXTT12=
EXTT13=
EXTT14=
PLAYORDER=
